<svg xmlns="http://www.w3.org/2000/svg" xmlns:xlink="http://www.w3.org/1999/xlink" viewBox="0 0 171.75 194.9063"><defs><style>.cls-1{fill:url(#We_a_gradient);}.cls-2{fill:url(#We_a_gradient-2);}.cls-3{fill:url(#We_a_gradient-3);}</style><linearGradient id="We_a_gradient" x1="174.985" y1="79.6289" x2="93.61" y2="133.6289" gradientUnits="userSpaceOnUse"><stop offset="0" stop-color="#af1b3f"/><stop offset="1" stop-color="#ff7c33"/></linearGradient><linearGradient id="We_a_gradient-2" x1="85.875" y1="76.3125" x2="85.875" y2="185.4375" xlink:href="#We_a_gradient"/><linearGradient id="We_a_gradient-3" x1="-17.827" y1="71.7307" x2="66.173" y2="123.8557" gradientTransform="translate(47.25 194.9063) rotate(180)" xlink:href="#We_a_gradient"/></defs><title>wealogo</title><g id="Layer_2" data-name="Layer 2"><g id="Layer_1-2" data-name="Layer 1"><path class="cls-1" d="M171.75,0h0a0,0,0,0,1,0,0V147.6563a47.25,47.25,0,0,1-47.25,47.25h0a0,0,0,0,1,0,0V47.25A47.25,47.25,0,0,1,171.75,0Z"/><path class="cls-2" d="M62.25,87h0a47.25,47.25,0,0,1,47.25,47.25v26.3438a23.625,23.625,0,0,1-23.625,23.625h0a23.625,23.625,0,0,1-23.625-23.625V87a0,0,0,0,1,0,0Z"/><path class="cls-3" d="M0,0H0A47.25,47.25,0,0,1,47.25,47.25V194.9063a0,0,0,0,1,0,0h0A47.25,47.25,0,0,1,0,147.6563V0A0,0,0,0,1,0,0Z" transform="translate(47.25 194.9063) rotate(-180)"/></g></g></svg>